PathFileType	4	(X/Y/Z)	S1_nor_slow_right.trc
DataRate	CameraRate	NumFrames	NumMarkers	Units	OrigDataRate	OrigDataStartFrame	OrigNumFrames
250.00	250.00	19	18	mm	250.00	7419	9891
Frame#	Time	c7	r_should	l_should	clavicle	r_upa	r_elb_l	r_elb_m	r_low	r_wri_l	r_wri_m	r_met	l_upa	l_elb_l	l_elb_m	l_low	l_wri_l	l_wri_m	l_met
	X1	Y1	Z1	X2	Y2	Z2	X3	Y3	Z3	X4	Y4	Z4	X5	Y5	Z5	X6	Y6	Z6	X7	Y7	Z7	X8	Y8	Z8	X9	Y9	Z9	X10	Y10	Z10	X11	Y11	Z11	X12	Y12	Z12	X13	Y13	Z13	X14	Y14	Z14	X15	Y15	Z15	X16	Y16	Z16	X17	Y17	Z17	X18	Y18	Z18
7419	29.67200	877.24908	1421.79346	83.73730	936.29559	1357.07300	254.16002	915.23621	1363.72571	-112.55534	1015.50507	1302.83350	62.01622	953.32758	1147.90259	301.10764	979.37994	1091.41040	308.33463	962.94092	1036.84875	220.25468	1088.64526	1049.58350	269.16666	1161.75244	1126.06055	284.98566	1163.60852	1105.33154	210.73419	1237.61523	1109.31946	298.14053	906.41107	1141.62573	-153.40625	910.16577	1055.29749	-167.60281	851.64252	1032.74207	-82.45227	852.61798	917.15619	-176.56844	920.43762	820.37708	-163.08153	848.99670	817.14905	-176.68828	931.20361	745.50262	-187.49069
7420	29.67600	877.24719	1421.79663	83.73763	936.14099	1357.08875	254.13689	915.36768	1363.72375	-112.55482	1015.53009	1302.84924	62.07342	953.57544	1147.90735	300.96649	979.74792	1091.63049	308.13806	963.49548	1037.00537	220.01546	1089.26648	1050.54956	268.82114	1161.69714	1127.43188	284.66852	1163.70410	1106.73743	210.41602	1237.66699	1111.25354	297.72473	906.52222	1141.61353	-153.38185	910.26630	1055.28955	-167.58430	851.74664	1032.73877	-82.42614	852.68201	917.14941	-176.51872	920.48932	820.36340	-163.06705	849.03485	817.13422	-176.62398	931.21149	745.48090	-187.48923
7421	29.68000	877.23798	1421.80469	83.72864	935.98401	1357.10498	254.11322	915.49377	1363.72705	-112.54620	1015.55206	1302.86511	62.12025	953.82129	1147.90088	300.82196	980.12421	1091.84241	307.94168	964.07318	1037.14746	219.77469	1089.89075	1051.51001	268.47580	1161.63379	1128.79114	284.35245	1163.78052	1108.14880	210.08273	1237.67688	1113.18176	297.29282	906.64050	1141.60181	-153.35503	910.38086	1055.27722	-167.55438	851.84741	1032.73828	-82.38992	852.75183	917.14630	-176.46992	920.54456	820.34894	-163.05130	849.07574	817.12970	-176.55992	931.22052	745.45801	-187.47932
7422	29.68400	877.14044	1421.67932	83.64658	935.49121	1356.99329	254.07153	915.61560	1363.72998	-112.53684	1015.57324	1302.87378	62.16826	954.07477	1147.89258	300.67920	980.61816	1091.88916	307.65070	964.70569	1037.29810	219.50703	1090.49341	1052.45398	268.10443	1161.56006	1130.15601	284.07019	1163.84180	1109.57666	209.70679	1237.70142	1115.14734	296.90182	906.76001	1141.59192	-153.32837	910.49359	1055.26807	-167.52884	851.95654	1032.73755	-82.34666	852.82861	917.14349	-176.42586	920.59589	820.33789	-163.03448	849.12122	817.12720	-176.48819	931.23083	745.44232	-187.47517
7423	29.68800	876.94061	1421.36121	83.46004	934.59473	1356.72046	254.01909	915.73383	1363.73608	-112.52793	1015.59473	1302.88867	62.22834	954.35309	1147.89136	300.54056	981.25629	1091.72900	307.23694	965.36432	1037.48328	219.18462	1091.08960	1053.40222	267.71918	1161.49426	1131.51550	283.77957	1163.90564	1110.98694	209.33141	1237.67590	1117.10291	296.53467	906.88647	1141.58728	-153.29846	910.61517	1055.26074	-167.50677	852.06995	1032.73730	-82.30766	852.91406	917.14038	-176.38458	920.65515	820.32904	-163.01993	849.16516	817.12842	-176.42499	931.24365	745.41650	-187.46028
7424	29.69200	876.89465	1421.28137	83.40073	934.28809	1356.65845	254.00574	915.84741	1363.74121	-112.51961	1015.61865	1302.90442	62.28402	954.65375	1147.89685	300.41296	981.69257	1091.79749	306.98779	965.98138	1037.64368	218.84561	1091.73157	1054.16699	267.24841	1161.43201	1132.86206	283.47229	1163.95496	1112.39709	208.97348	1237.76843	1118.99023	296.05765	907.02527	1141.58557	-153.26814	910.74091	1055.25586	-167.48685	852.19147	1032.74023	-82.26884	853.00397	917.14343	-176.34576	920.71716	820.32489	-163.00755	849.21405	817.12836	-176.35866	931.25348	745.38995	-187.44760
7425	29.69600	876.89984	1421.26575	83.39032	934.12695	1356.64087	253.99995	915.95959	1363.74719	-112.50454	1015.64386	1302.91406	62.33700	954.98187	1147.91541	300.29395	982.10352	1091.94324	306.77759	966.55573	1037.77722	218.54466	1092.45593	1054.72083	266.67722	1161.36523	1134.18945	283.13263	1163.99573	1113.79382	208.58978	1238.13989	1120.76160	295.40060	907.16656	1141.58911	-153.23802	910.86670	1055.24561	-167.46170	852.31586	1032.75391	-82.22816	853.09351	917.15063	-176.29996	920.77753	820.31396	-162.99089	849.26654	817.13068	-176.29086	931.27246	745.36536	-187.43159
7426	29.70000	876.91150	1421.25549	83.38239	933.99707	1356.63000	253.98415	916.06793	1363.76233	-112.48933	1015.67468	1302.92175	62.40454	955.30499	1147.94421	300.17697	982.50012	1092.11792	306.56750	967.16235	1037.92493	218.25671	1093.04504	1055.55750	266.25531	1161.30420	1135.53308	282.82144	1164.03601	1115.16614	208.21220	1238.18689	1122.65771	294.91458	907.30408	1141.59131	-153.20264	910.99048	1055.24084	-167.42921	852.44104	1032.76477	-82.18855	853.18768	917.15637	-176.25119	920.83923	820.30615	-162.97400	849.32306	817.13654	-176.22314	931.28845	745.34094	-187.40776
7427	29.70400	876.92133	1421.25012	83.38197	933.88293	1356.61816	253.97691	916.17944	1363.77393	-112.47690	1015.69965	1302.93372	62.46106	955.61621	1147.95972	300.04202	982.88763	1092.30371	306.37909	967.72052	1038.05188	217.98485	1093.56177	1056.41333	265.87903	1161.22266	1136.84912	282.51379	1164.24255	1116.22876	207.55888	1238.18689	1124.60352	294.48834	907.44067	1141.58740	-153.16797	911.11829	1055.24854	-167.38898	852.56720	1032.76721	-82.13964	853.28088	917.16254	-176.20357	920.89966	820.29785	-162.95210	849.37927	817.14508	-176.15317	931.30518	745.31458	-187.38005
7428	29.70800	876.93512	1421.25769	83.38680	933.77612	1356.60205	253.97617	916.28363	1363.78333	-112.45676	1015.72559	1302.92505	62.51698	955.94647	1147.96997	299.91580	983.26343	1092.49622	306.18930	968.24799	1038.19580	217.74811	1094.08545	1057.30945	265.50925	1161.14441	1138.16455	282.17886	1164.62634	1116.88757	206.60060	1238.66980	1126.66504	294.04880	907.58441	1141.58301	-153.12883	911.24695	1055.24426	-167.34302	852.69568	1032.77161	-82.09341	853.37488	917.16998	-176.15233	920.96301	820.28864	-162.92554	849.43774	817.14758	-176.08014	931.32745	745.29108	-187.34804
7429	29.71200	876.94934	1421.27222	83.39074	933.67535	1356.58459	253.97075	916.38818	1363.79529	-112.44448	1015.75543	1302.92004	62.57328	956.27411	1147.98193	299.79492	983.64459	1092.70251	305.99362	968.83942	1038.31384	217.50795	1094.60181	1058.22241	265.15057	1161.05627	1139.48389	281.86960	1164.72339	1117.78992	206.47136	1239.77747	1128.86084	293.56433	907.73004	1141.57739	-153.08543	911.37354	1055.24072	-167.30078	852.81995	1032.78308	-82.05414	853.46368	917.17828	-176.10001	921.02765	820.28168	-162.89755	849.49738	817.15881	-176.00655	931.34943	745.27057	-187.31633
7430	29.71600	876.96143	1421.27686	83.39235	933.57513	1356.56677	253.96091	916.49823	1363.81262	-112.43650	1015.78223	1302.93066	62.62410	956.59515	1147.99963	299.67520	984.03650	1092.90479	305.81720	969.39941	1038.43115	217.27942	1095.09338	1059.12598	264.81491	1160.96643	1140.79565	281.54990	1164.80225	1118.55994	206.61684	1240.08203	1130.85535	293.08502	907.86920	1141.57666	-153.04047	911.49768	1055.24695	-167.26425	852.93939	1032.79993	-82.01563	853.55066	917.19098	-176.04443	921.09210	820.28125	-162.86571	849.55646	817.17334	-175.92804	931.37610	745.25049	-187.28021
7431	29.72000	876.98126	1421.28857	83.39233	933.47650	1356.55029	253.96169	916.61005	1363.83362	-112.42299	1015.81061	1302.94556	62.67896	956.90649	1148.01221	299.56583	984.43726	1093.09351	305.65564	969.91010	1038.54712	217.06841	1095.59619	1060.03052	264.47952	1160.87231	1142.12439	281.19684	1164.79321	1119.96594	206.27943	1240.17834	1132.77625	292.61917	908.00348	1141.58569	-152.99219	911.62787	1055.25122	-167.20761	853.05573	1032.81665	-81.96836	853.63812	917.20856	-175.98361	921.15723	820.28998	-162.83299	849.62189	817.18829	-175.84576	931.40796	745.23688	-187.24483
7432	29.72400	876.99890	1421.29260	83.39606	933.38873	1356.54370	253.95644	916.72131	1363.85498	-112.40369	1015.83411	1302.96375	62.73925	957.21039	1148.02881	299.45950	984.82227	1093.27893	305.49704	970.46582	1038.67249	216.84491	1096.07446	1060.91553	264.13409	1160.77148	1143.42456	280.83762	1164.75732	1121.51587	205.80164	1240.12634	1134.70435	292.22119	908.13385	1141.60266	-152.94905	911.75238	1055.25439	-167.14191	853.16541	1032.82971	-81.92219	853.71716	917.23041	-175.92250	921.22302	820.30096	-162.80037	849.68640	817.20221	-175.76270	931.43628	745.23053	-187.21017
7433	29.72800	877.01318	1421.29968	83.39487	933.30927	1356.53760	253.95728	916.83307	1363.88892	-112.38561	1015.85974	1302.97681	62.79999	957.51025	1148.05298	299.36551	985.23773	1093.47607	305.38358	970.94550	1038.78333	216.67975	1096.49585	1061.93689	263.50104	1160.67297	1144.73730	280.51297	1164.70618	1123.01355	205.36324	1240.08472	1136.63477	291.81015	908.25732	1141.61658	-152.89864	911.86499	1055.27368	-167.08893	853.27020	1032.85474	-81.87383	853.80109	917.24872	-175.85976	921.28955	820.31573	-162.76436	849.74927	817.21936	-175.68315	931.47015	745.22449	-187.17024
7434	29.73200	877.03253	1421.31274	83.39411	933.23480	1356.53564	253.95728	916.95392	1363.91199	-112.37236	1015.88928	1302.98730	62.85636	957.80096	1148.08887	299.27863	985.71027	1093.69299	305.33173	968.96277	1038.03931	217.71649	1096.84314	1063.08557	262.49390	1160.57104	1146.02893	280.21063	1164.63770	1124.49255	204.95244	1240.03101	1138.51440	291.37839	908.38293	1141.62878	-152.84326	911.96405	1055.28613	-167.03381	853.37518	1032.88513	-81.81388	853.88831	917.26770	-175.80220	921.35614	820.33527	-162.72701	849.81830	817.23773	-175.60217	931.51038	745.22260	-187.12888
7435	29.73600	877.05719	1421.32397	83.38649	933.16272	1356.53149	253.95265	917.07141	1363.93250	-112.35033	1015.92029	1303.00061	62.90863	958.01361	1148.17847	299.14957	986.12714	1093.86646	305.20456	963.84546	1036.24756	220.22205	1097.20837	1063.94727	262.02106	1160.45801	1147.31360	279.89185	1164.58081	1125.94983	204.53052	1240.02881	1140.42761	290.93256	908.50604	1141.64124	-152.79779	912.06335	1055.30261	-166.99081	853.47595	1032.90930	-81.75703	853.97235	917.28961	-175.74548	921.42615	820.35651	-162.69194	849.88062	817.24976	-175.52480	931.55292	745.22784	-187.08006
7436	29.74000	877.07501	1421.32471	83.37067	933.09619	1356.51807	253.94603	917.19049	1363.95837	-112.33552	1015.95068	1303.01050	62.95715	958.15820	1148.33655	298.97644	986.51874	1094.04993	305.06354	965.48267	1036.78040	219.51979	1097.59375	1064.74683	261.69104	1160.34668	1148.57434	279.54767	1164.50525	1127.38879	204.12996	1239.99646	1142.32690	290.50211	908.61743	1141.65503	-152.75005	912.16119	1055.32300	-166.93904	853.57758	1032.93201	-81.70042	854.05865	917.30872	-175.68907	921.49969	820.37427	-162.65427	849.94672	817.26575	-175.45259	931.59235	745.22821	-187.03160
7437	29.74400	877.09564	1421.32642	83.37257	933.03497	1356.50122	253.94112	917.30249	1363.98535	-112.32352	1015.98083	1303.01648	63.00143	958.42871	1148.40979	298.89514	986.90924	1094.25024	304.93747	971.33850	1038.73267	216.83141	1097.96326	1065.51331	261.41208	1160.23145	1149.82532	279.20300	1164.41821	1128.80200	203.75977	1239.94470	1144.21851	290.06796	908.73059	1141.66357	-152.70549	912.25940	1055.32605	-166.88487	853.67743	1032.96008	-81.64111	854.14661	917.32635	-175.62907	921.57275	820.39465	-162.61626	850.02197	817.28528	-175.38821	931.63849	745.22388	-186.99387
